<?xml version="1.0" encoding="utf-8"?>
<!-- Generator: Adobe Illustrator 16.0.0, SVG Export Plug-In . SVG Version: 6.00 Build 0)  -->
<!DOCTYPE svg PUBLIC "-//W3C//DTD SVG 1.1//EN" "http://www.w3.org/Graphics/SVG/1.1/DTD/svg11.dtd">
<svg version="1.1" id="Capa_1" xmlns="http://www.w3.org/2000/svg" xmlns:xlink="http://www.w3.org/1999/xlink" x="0px" y="0px"
	 width="399px" height="121px" viewBox="0 0 399 121" enable-background="new 0 0 399 121" xml:space="preserve">
<g>
	<g>
		<path fill="#0074A7" d="M199.286,69.567c125.402,0,199.267-8.226,199.267-30.639c0-22.354-81.363-29.422-87.756-30.047
			c-2.105,0-3.804,1.715-3.804,3.825c0,2.111,1.698,3.812,3.804,3.812c4.552,0.355,85.236,5.099,85.236,22.411
			c0,18.154-94.354,23.267-196.747,23.267C96.888,62.195,2.52,57.083,2.52,38.928c0-17.312,80.69-22.056,85.24-22.411
			c2.116,0,3.828-1.701,3.828-3.812c0-2.11-1.712-3.825-3.828-3.825C81.37,9.506,0,16.574,0,38.928
			C0,61.342,73.884,69.567,199.286,69.567"/>
		<polygon fill="#0074A7" points="97.915,2.75 109.048,2.495 109.087,4.515 100.657,4.712 100.722,7.945 108.834,7.751 
			108.874,9.761 100.778,9.951 100.857,13.516 109.458,13.308 109.486,15.324 98.22,15.58 		"/>
		<path fill="#0074A7" d="M111.779,2.373l6.898-0.289c5.038-0.209,6.393,2.616,6.547,6.262c0.118,2.768-1,6.35-5.359,6.532
			l-7.548,0.313L111.779,2.373z M114.918,13.071l3.782-0.169c1.945-0.074,3.996-0.788,3.832-4.556
			c-0.187-4.144-2.834-4.283-4.336-4.219l-3.638,0.146L114.918,13.071z"/>
		<polygon fill="#0074A7" points="127.854,1.711 130.552,1.59 131.093,14.405 128.413,14.51 		"/>
		<polygon fill="#0074A7" points="138,3.314 133.186,3.521 133.107,1.499 145.41,1.022 145.489,3.018 140.69,3.215 141.113,14.018 
			138.433,14.108 		"/>
		<path fill="#0074A7" d="M145.883,7.365c-0.122-3.616,1.896-6.834,7.308-7.023c5.432-0.173,7.655,2.915,7.771,6.524
			c0.134,3.61-1.886,6.828-7.322,7.023C148.221,14.051,146.004,10.977,145.883,7.365 M158.163,6.964
			c-0.095-2.83-1.886-4.713-4.896-4.618c-3.015,0.103-4.685,2.092-4.583,4.92c0.092,2.82,1.873,4.699,4.887,4.61
			C156.605,11.769,158.249,9.786,158.163,6.964"/>
		<path fill="#0074A7" d="M163.287,0.389l8.138-0.18c3.25-0.063,4.346,1.411,4.393,3.399c0.029,1.666-0.862,2.729-2.057,3.125v0.039
			c1.528,0.304,1.905,1.618,1.942,3.425c0.015,0.614,0.065,2.06,0.607,2.738l-2.917,0.077c-0.212-0.359-0.338-1.009-0.367-1.945
			c-0.042-1.83-0.312-3.123-2.287-3.07l-4.585,0.092l0.111,5.068l-2.69,0.064L163.287,0.389z M170.755,5.979
			c1.5-0.024,2.3-0.512,2.271-1.934c-0.033-1.337-0.928-1.833-2.335-1.805l-4.666,0.105l0.083,3.73L170.755,5.979z"/>
		<polygon fill="#0074A7" points="178.555,0.104 181.248,0.065 181.419,12.879 178.729,12.919 		"/>
		<path fill="#0074A7" d="M188.743,0.007L191.938,0l5.748,12.803l-2.999,0.016l-1.349-3.186l-6.036,0.012l-1.334,3.183l-2.907,0.019
			L188.743,0.007z M192.515,7.631l-2.197-5.404l-2.211,5.404H192.515z"/>
		<polygon fill="#0074A7" points="199.499,0.021 202.183,0.046 202.049,10.76 209.843,10.853 209.818,12.984 199.322,12.828 		"/>
		<polygon fill="#0074A7" points="219.017,0.326 222.891,0.448 227.105,10.511 231.832,0.684 235.669,0.797 235.334,13.604 
			232.795,13.535 233.186,2.947 233.15,2.94 228.121,13.406 225.825,13.362 221.404,2.623 221.361,2.623 221.188,13.222 
			218.658,13.157 		"/>
		<polygon fill="#0074A7" points="238.911,0.906 250.021,1.312 249.954,3.314 241.518,3.018 241.408,6.248 249.504,6.536 
			249.442,8.554 241.339,8.258 241.215,11.805 249.791,12.114 249.714,14.108 238.447,13.719 		"/>
		<path fill="#0074A7" d="M252.808,1.405l6.919,0.285c5.018,0.219,6.136,3.149,5.969,6.802c-0.109,2.75-1.516,6.227-5.868,6.054
			l-7.549-0.324L252.808,1.405z M255.041,12.322l3.787,0.167c1.947,0.07,4.029-0.467,4.183-4.22
			c0.172-4.166-2.441-4.521-3.948-4.584l-3.643-0.158L255.041,12.322z"/>
		<polygon fill="#0074A7" points="268.684,2.091 271.362,2.212 270.772,15.033 268.081,14.891 		"/>
		<path fill="#0074A7" d="M284.865,7.627c-0.183-1.953-1.714-3.189-3.979-3.291c-2.48-0.135-4.411,1.426-4.583,4.76
			c-0.128,2.672,1.623,4.622,4.283,4.744c2.806,0.146,3.832-1.696,4.104-3.045l2.912,0.158c-0.512,2.537-2.308,5.149-7.588,4.88
			c-4.629-0.242-6.681-3.51-6.494-7.111c0.189-3.601,2.461-6.662,7.506-6.405c4.415,0.235,6.583,2.676,6.73,5.454L284.865,7.627z"/>
		<path fill="#0074A7" d="M294.999,3.457l3.188,0.178l4.956,13.15l-2.986-0.192l-1.164-3.263l-6.028-0.346l-1.513,3.093
			l-2.896-0.166L294.999,3.457z M298.299,11.271l-1.872-5.508l-2.542,5.26L298.299,11.271z"/>
		<path fill="#0074A7" d="M66.422,25.944c5.713,0,9.297,5.845,9.297,11.018c0,4.666-3.081,9.884-8.25,9.884
			c-2.812,0-5.167-1.358-6.915-3.482v1.486c0,1.238,0.105,2.6,0.278,3.558c0.41,1.364,2.506,1.537,2.506,2.761
			c0,1.218-1.233,1.405-2.184,1.405h-7.223c-0.899,0-2.034-0.132-2.115-1.278c0-1.391,1.492-1.264,2.115-2.169
			c0.508-0.635,0.593-2.664,0.593-4.174v-1.771v-8.765c0-3.814-2.801-2.143-2.801-4.043c0-0.594,0.585-0.955,1.04-1.215l5.436-2.865
			c0.286-0.141,0.551-0.235,0.878-0.268c1.391,0,1.477,1.442,1.477,2.577v0.555C62.105,27.518,64.018,25.944,66.422,25.944
			 M65.697,29.101c-3.64,0-5.401,3.958-5.401,7.08c0,2.277,0.59,5.857,3.54,5.857c3.676,0,6.264-4.352,6.264-7.621
			C70.099,31.922,68.505,29.101,65.697,29.101"/>
		<path fill="#0074A7" d="M84.344,46.706c-3.63,0-7.534-1.938-7.534-6.025c0-4.856,5.714-6.987,9.742-6.987
			c0.971,0,1.919,0.041,2.871,0.086c-0.811-2.212-1.815-4.494-4.579-4.494c-2.818,0-3.949,2.006-5.271,2.006
			c-0.492,0-0.945-0.369-0.991-0.867c0-3.128,5.799-4.718,8.204-4.718c5.363,0,7.354,2.989,8.765,7.708l2.128,6.948
			c0.308,1.097,1.276,2.9,2.555,2.9c0.358,0,0.804-0.307,1.04-0.542c0.44,0.449,0.675,0.918,0.675,1.548
			c0,2.032-2.86,2.437-4.358,2.437c-2.271,0-3.717-0.759-4.997-2.583C90.101,45.722,87.329,46.706,84.344,46.706 M90.285,37.723
			c-0.462-1.172-1.368-1.46-2.552-1.46c-1.985,0-4.26,1.149-4.26,3.332c0,2.264,2.089,3.713,4.181,3.713
			c1.315,0,3.631-0.453,3.631-2.187C91.286,40.124,90.695,38.636,90.285,37.723"/>
		<path fill="#0074A7" d="M117.847,26.294c3.861,0,5.494,3.271,6.357,6.487l2.036,7.256c0.584,2.06,0.63,2.74,2.401,3.906
			c0.411,0.271,0.679,0.59,0.679,1.097c0,1.039-0.944,1.315-1.817,1.315h-8.071c-0.732,0-1.635-0.319-1.635-1.225
			c0-1.491,2.401-1.453,2.401-3.225c0-0.414-0.085-0.916-0.174-1.27l-1.593-6.083c-0.357-1.583-1.227-4.267-3.271-4.267
			c-2.345,0-2.804,2.868-2.804,4.619v2.962c0,1.502,0.052,2.955,0.272,4.403c0.321,1.271,2.306,1.486,2.306,2.861
			c0,1.033-1.223,1.225-2.026,1.225h-7.223c-0.771,0-1.998-0.192-1.998-1.225c0-1.688,2.637-0.728,2.637-6.048
			c0-1.396-0.049-2.901-0.049-4.298c0-3.728-2.722-2.264-2.722-3.861c0-0.445,0.449-1.039,0.813-1.229l6.213-3.256
			c0.177-0.143,0.452-0.232,0.689-0.284c0.855,0,1.089,1.003,1.089,1.734v1.398C113.986,27.791,115.483,26.294,117.847,26.294"/>
		<path fill="#0074A7" d="M137.295,46.706c-3.622,0-7.525-1.938-7.525-6.025c0-4.856,5.714-6.987,9.758-6.987
			c0.945,0,1.907,0.041,2.851,0.086c-0.804-2.212-1.805-4.494-4.58-4.494c-2.814,0-3.941,2.006-5.264,2.006
			c-0.495,0-0.948-0.369-0.997-0.867c0-3.128,5.809-4.718,8.22-4.718c5.336,0,7.344,2.989,8.761,7.708l2.122,6.948
			c0.309,1.097,1.27,2.9,2.542,2.9c0.354,0,0.814-0.307,1.043-0.542c0.456,0.449,0.679,0.918,0.679,1.548
			c0,2.032-2.854,2.437-4.355,2.437c-2.264,0-3.72-0.759-4.996-2.583C143.064,45.722,140.293,46.706,137.295,46.706 M142.304,37.723
			c-0.462-1.172-1.361-1.46-2.545-1.46c-2.001,0-4.258,1.149-4.258,3.332c0,2.264,2.077,3.713,4.159,3.713
			c1.326,0,3.638-0.453,3.638-2.187C143.298,40.124,142.705,38.636,142.304,37.723"/>
		<path fill="#0074A7" d="M181.889,26.205c2.946,0,4.938,1.818,5.809,4.627l2.804,9.205c0.276,0.906,0.548,1.822,1.05,2.634
			c0.414,0.638,0.95,0.968,1.584,1.366c0.46,0.271,0.778,0.602,0.778,1.144c0,0.898-0.865,1.175-1.588,1.175h-8.397
			c-0.908,0-2.181-0.192-2.181-1.315c0-1.401,2.72-1.5,2.768-2.732c0-0.727-0.176-1.587-0.406-2.271l-2.09-6.884
			c-0.406-1.324-1.218-2.6-2.718-2.6c-2.125,0-2.729,2.416-2.729,4.145v3.025c0,1.548,0.048,3.049,0.274,4.546
			c0.358,1.37,2.32,1.54,2.32,2.861c0,1.033-1.229,1.225-1.99,1.225h-7.227c-0.808,0-2.041-0.192-2.041-1.225
			c0-1.734,2.627-0.643,2.627-6.048c0-0.713-0.036-1.536-0.036-2.163c0-0.503,0.036-1.19,0.036-1.904
			c0-2.089-0.302-4.591-2.677-4.591c-2.256,0-3.723,2.231-3.723,4.31c0,1.133-0.046,2.271-0.046,3.443
			c0,1.418,0.046,2.766,0.369,4.092c0.281,1.318,2.269,1.454,2.269,2.861c0,1.033-1.187,1.225-1.988,1.225h-7.215
			c-0.781,0-1.995-0.192-1.995-1.225c0-1.688,2.634-0.728,2.634-6.048c0-1.315-0.056-2.729-0.056-4.03
			c0-4.306-2.864-2.358-2.864-4.347c0-0.688,0.59-1.051,1.148-1.332l5.977-3.08c0.239-0.089,0.633-0.268,0.898-0.268
			c0.778,0,0.869,1.039,0.869,2.084v1.23c1.732-1.731,3.818-3.236,6.314-3.236c2.532,0,4.58,0.96,5.809,3.236
			C177.715,27.563,179.432,26.205,181.889,26.205"/>
		<path fill="#0074A7" d="M207.522,42.988c3.727,0,6.083-3.358,6.899-3.393c0.54,0,1.119,0.411,1.119,1.04
			c0,1.17-1.347,2.321-2.12,3.004c-2.634,1.988-6.034,3.021-9.354,3.021c-6.122,0-10.755-4.209-10.755-10.479
			c0-5.665,5.186-10.336,10.755-10.336c3.09,0,6.051,1.221,8.028,3.624c0.324,0.446,1.901,2.454,1.901,3.349
			c0,0.509-2.023,1.416-2.797,1.689l-9.759,4.352C202.52,41.407,204.716,42.988,207.522,42.988 M205.609,34.376
			c0.367-0.19,1.057-0.405,1.224-0.865c0-0.046,0.048-0.232,0.048-0.27c0-1.904-2.487-4.442-4.449-4.442
			c-1.898,0-3.126,1.753-3.126,3.532c0,0.727,0.284,4.13,1.414,4.13c0.22,0,0.539-0.141,0.723-0.227L205.609,34.376z"/>
		<path fill="#0074A7" d="M232.294,26.026c0.675,0,2.402,0,2.5,0.997c0,0.31-0.053,0.635-0.145,0.959l-1.721,5.171
			c-0.176,0.54-0.412,1.127-1.093,1.179c-1.083,0-1.635-2.467-3.574-2.467c-2.863,0-3.513,2.87-3.513,5.141v2.504
			c0,1,0,2.18,0.421,3.077c0.49,1.053,2.364,1.053,2.364,2.398c0,1.094-1.188,1.371-2.045,1.371h-7.346
			c-0.968,0-2.102-0.136-2.18-1.276c0-1.356,1.521-1.27,2.18-2.176c0.495-0.634,0.589-2.681,0.589-4.172V33.86
			c0-2.804-2.639-1.126-2.639-3.115c0.042-0.46,0.363-0.774,0.727-0.966l5.941-3.447c0.278-0.18,0.549-0.268,0.857-0.307
			c1.102,0,1.184,0.997,1.184,1.894c0.046,0.879,0.098,1.773,0.098,2.633C227.028,28.069,228.793,26.026,232.294,26.026"/>
		<path fill="#0074A7" d="M244.088,36.961v1.675c0,1.224,0.082,2.588,0.257,3.543c0.329,1.306,2.466,1.361,2.466,2.762
			c0,1.19-1.188,1.414-2.137,1.414h-7.256c-0.968,0-2.084-0.136-2.188-1.276c0-1.356,1.541-1.27,2.188-2.176
			c0.49-0.634,0.587-2.681,0.587-4.172v-4.998c0-4.168-2.267-1.759-2.267-3.762c0-0.725,0.678-1.083,1.267-1.368l5.404-2.358
			c0.219-0.141,0.533-0.219,0.822-0.269c0.762,0,0.856,0.86,0.856,1.492V36.961z M238.778,23.441c-1.189,0-2.193-0.963-2.193-2.048
			c0-2.269,3.463-3.665,5.312-3.665c1.094,0,2.19,0.763,2.19,1.887C244.088,21.992,240.767,23.441,238.778,23.441"/>
		<path fill="#0074A7" d="M265.773,33.779c-0.239,0.453-0.501,0.918-1.011,0.918c-1.491,0-1.449-6.402-5.893-6.402
			c-3.532,0-4.491,4.36-4.491,7.076c0,3.807,2.037,8.114,6.396,8.114c3.903,0,5.947-3.855,7.122-3.944
			c0.461,0,1.003,0.275,1.051,0.778c0,1.399-0.992,2.401-2.004,3.32c-2.221,2.034-4.992,3.021-7.984,3.021
			c-6.115,0-11.578-3.617-11.578-10.152c0-6.624,6.187-10.709,12.301-10.709c2.364,0,4.763,0.496,6.847,1.592
			c0.55,0.268,1.427,0.591,1.427,1.305c0,0.367-0.059,0.646-0.239,0.959L265.773,33.779z"/>
		<path fill="#0074A7" d="M277.33,46.706c-3.635,0-7.534-1.938-7.534-6.025c0-4.856,5.716-6.987,9.754-6.987
			c0.959,0,1.92,0.041,2.857,0.086c-0.82-2.212-1.817-4.494-4.583-4.494c-2.813,0-3.952,2.006-5.257,2.006
			c-0.501,0-0.965-0.369-1.008-0.867c0-3.128,5.808-4.718,8.221-4.718c5.353,0,7.342,2.989,8.752,7.708l2.134,6.948
			c0.322,1.097,1.27,2.9,2.545,2.9c0.369,0,0.827-0.307,1.037-0.542c0.453,0.449,0.687,0.918,0.687,1.548
			c0,2.032-2.86,2.437-4.36,2.437c-2.267,0-3.716-0.759-4.989-2.583C283.093,45.722,280.338,46.706,277.33,46.706 M284.211,37.723
			c-0.45-1.172-1.354-1.46-2.546-1.46c-1.989,0-4.253,1.149-4.253,3.332c0,2.264,2.087,3.713,4.175,3.713
			c1.313,0,3.625-0.453,3.625-2.187C285.212,40.124,284.614,38.636,284.211,37.723"/>
		<path fill="#0074A7" d="M310.833,26.294c3.852,0,5.484,3.271,6.356,6.487l2.029,7.256c0.604,2.06,0.653,2.74,2.416,3.906
			c0.405,0.271,0.674,0.59,0.674,1.097c0,1.039-0.949,1.315-1.813,1.315h-8.065c-0.73,0-1.646-0.319-1.646-1.225
			c0-1.491,2.397-1.453,2.397-3.225c0-0.414-0.079-0.916-0.171-1.27l-1.586-6.083c-0.365-1.583-1.219-4.267-3.268-4.267
			c-2.359,0-2.812,2.868-2.812,4.619v2.962c0,1.502,0.037,2.955,0.277,4.403c0.314,1.271,2.302,1.486,2.302,2.861
			c0,1.033-1.216,1.225-2.04,1.225h-7.207c-0.775,0-2-0.192-2-1.225c0-1.688,2.625-0.728,2.625-6.048
			c0-1.396-0.037-2.901-0.037-4.298c0-3.728-2.726-2.264-2.726-3.861c0-0.445,0.445-1.039,0.815-1.229l6.217-3.256
			c0.185-0.143,0.463-0.232,0.679-0.284c0.864,0,1.095,1.003,1.095,1.734v1.398C306.976,27.791,308.478,26.294,310.833,26.294"/>
		<path fill="#0074A7" d="M330.301,46.706c-3.64,0-7.545-1.938-7.545-6.025c0-4.856,5.716-6.987,9.759-6.987
			c0.94,0,1.917,0.041,2.862,0.086c-0.825-2.212-1.825-4.494-4.589-4.494c-2.811,0-3.953,2.006-5.261,2.006
			c-0.505,0-0.957-0.369-0.99-0.867c0-3.128,5.805-4.718,8.193-4.718c5.362,0,7.368,2.989,8.774,7.708l2.126,6.948
			c0.321,1.097,1.262,2.9,2.536,2.9c0.366,0,0.819-0.307,1.056-0.542c0.448,0.449,0.672,0.918,0.672,1.548
			c0,2.032-2.868,2.437-4.353,2.437c-2.276,0-3.729-0.759-4.992-2.583C336.05,45.722,333.284,46.706,330.301,46.706 M336.23,37.723
			c-0.452-1.172-1.361-1.46-2.545-1.46c-1.997,0-4.266,1.149-4.266,3.332c0,2.264,2.101,3.713,4.174,3.713
			c1.322,0,3.643-0.453,3.643-2.187C337.236,40.124,336.653,38.636,336.23,37.723"/>
	</g>
	<g>
		<polygon fill="#0074A7" points="7.623,108.86 7.623,91.854 11.396,91.854 11.396,105.576 18.831,105.576 18.831,108.86 		"/>
		<path fill="#0074A7" d="M27.139,107.479c-0.597,0.586-1.164,1.005-1.719,1.277c-0.547,0.262-1.134,0.389-1.757,0.389
			c-0.946,0-1.707-0.312-2.281-0.935c-0.57-0.626-0.856-1.446-0.856-2.489c0-1.387,0.516-2.489,1.532-3.332
			c1.027-0.829,2.565-1.387,4.612-1.665v-0.979c0-0.381-0.147-0.676-0.446-0.896c-0.302-0.243-0.692-0.365-1.19-0.365
			c-0.44,0-0.889,0.103-1.352,0.302c-0.456,0.215-0.964,0.522-1.509,0.96l-1.508-1.937c0.649-0.538,1.351-0.938,2.105-1.212
			c0.744-0.255,1.567-0.382,2.466-0.382c1.526,0,2.694,0.35,3.47,1.075c0.791,0.714,1.191,1.767,1.191,3.178v5.328
			c0,0.197,0.053,0.361,0.155,0.496c0.094,0.132,0.239,0.218,0.43,0.266l-0.007,2.411c-0.06,0.014-0.128,0.014-0.2,0.025
			C30.197,109,30.088,109,29.941,109c-0.663,0-1.225-0.122-1.681-0.378C27.8,108.383,27.429,108.001,27.139,107.479 M26.67,102.604
			c-0.935,0.122-1.679,0.411-2.221,0.87c-0.563,0.464-0.825,1.016-0.825,1.661c0,0.44,0.118,0.812,0.366,1.097
			c0.247,0.268,0.568,0.415,0.958,0.415c0.538,0,0.97-0.225,1.262-0.677c0.312-0.454,0.459-1.097,0.459-1.929V102.604z"/>
		<path fill="#0074A7" d="M38.643,105.865l2.929-2.08c0.508,0.838,1.026,1.44,1.535,1.804c0.519,0.359,1.111,0.541,1.771,0.541
			c0.634,0,1.152-0.164,1.539-0.495c0.4-0.331,0.593-0.761,0.593-1.282c0-0.473-0.152-0.885-0.456-1.23
			c-0.308-0.356-0.78-0.67-1.414-0.936c-0.236-0.095-0.554-0.217-0.977-0.39c-1.587-0.639-2.667-1.185-3.234-1.637
			c-0.624-0.491-1.102-1.052-1.407-1.702c-0.322-0.638-0.482-1.345-0.482-2.117c0-1.509,0.505-2.71,1.533-3.627
			c1.013-0.917,2.374-1.364,4.073-1.364c1.208,0,2.279,0.255,3.225,0.771c0.931,0.522,1.715,1.281,2.335,2.286l-2.703,1.934
			c-0.447-0.613-0.905-1.078-1.417-1.382c-0.505-0.302-1.052-0.453-1.65-0.453c-0.57,0-1.014,0.127-1.334,0.395
			c-0.329,0.269-0.483,0.637-0.483,1.092c0,0.424,0.154,0.808,0.473,1.146c0.315,0.343,0.823,0.656,1.502,0.95
			c0.286,0.127,0.689,0.298,1.227,0.517c1.509,0.615,2.516,1.121,3.037,1.537c0.578,0.464,1.024,1.03,1.333,1.693
			c0.311,0.683,0.452,1.431,0.452,2.226c0,1.574-0.531,2.829-1.614,3.803c-1.072,0.957-2.49,1.449-4.241,1.449
			c-1.335,0-2.512-0.295-3.536-0.862C40.22,107.863,39.358,107.011,38.643,105.865"/>
		<path fill="#0074A7" d="M59.438,107.479c-0.59,0.586-1.158,1.005-1.708,1.277c-0.555,0.262-1.146,0.389-1.771,0.389
			c-0.945,0-1.7-0.312-2.271-0.935c-0.573-0.626-0.866-1.446-0.866-2.489c0-1.387,0.518-2.489,1.542-3.332
			c1.015-0.829,2.559-1.387,4.616-1.665v-0.979c0-0.381-0.152-0.676-0.454-0.896c-0.294-0.243-0.697-0.365-1.181-0.365
			c-0.449,0-0.896,0.103-1.361,0.302c-0.458,0.215-0.967,0.522-1.505,0.96l-1.519-1.937c0.653-0.538,1.354-0.938,2.109-1.212
			c0.745-0.255,1.568-0.382,2.458-0.382c1.538,0,2.709,0.35,3.487,1.075c0.79,0.714,1.184,1.767,1.184,3.178v5.328
			c0,0.197,0.052,0.361,0.147,0.496c0.111,0.132,0.256,0.218,0.439,0.266l-0.004,2.411c-0.062,0.014-0.131,0.014-0.216,0.025
			C62.5,109,62.388,109,62.24,109c-0.649,0-1.214-0.122-1.676-0.378C60.111,108.383,59.727,108.001,59.438,107.479 M58.98,102.604
			c-0.942,0.122-1.69,0.411-2.241,0.87c-0.546,0.464-0.821,1.016-0.821,1.661c0,0.44,0.128,0.812,0.377,1.097
			c0.246,0.268,0.57,0.415,0.948,0.415c0.548,0,0.971-0.225,1.276-0.677c0.302-0.454,0.46-1.097,0.46-1.929V102.604z"/>
		<rect x="65.129" y="91.421" fill="#0074A7" width="3.233" height="17.439"/>
		<path fill="#0074A7" d="M81.245,96.48v12.38h-3.228v-2.352c-0.617,0.911-1.237,1.574-1.853,1.999
			c-0.616,0.428-1.279,0.637-1.974,0.637c-0.811,0-1.454-0.248-1.936-0.742c-0.499-0.506-0.735-1.167-0.735-1.984V96.48h3.244v7.718
			c0,0.811,0.072,1.332,0.224,1.582c0.15,0.229,0.439,0.35,0.863,0.35c0.305,0,0.643-0.101,0.991-0.311
			c0.364-0.202,0.754-0.516,1.177-0.931V96.48H81.245z"/>
		<path fill="#0074A7" d="M94.274,108.86h-3.222v-2.201c-0.573,0.89-1.15,1.528-1.725,1.913c-0.582,0.381-1.247,0.572-2.008,0.572
			c-1.158,0-1.951-0.389-2.384-1.189c-0.446-0.796-0.656-2.565-0.656-5.28c0-2.729,0.209-4.481,0.633-5.276
			c0.429-0.803,1.209-1.185,2.361-1.185c0.791,0,1.473,0.18,2.054,0.554c0.574,0.37,1.151,0.994,1.725,1.888v-7.234h3.222V108.86z
			 M91.052,99.936c-0.515-0.312-0.948-0.543-1.315-0.692c-0.36-0.138-0.659-0.221-0.901-0.221c-0.486,0-0.816,0.197-1.001,0.574
			c-0.18,0.385-0.275,1.412-0.275,3.078c0,1.659,0.095,2.692,0.275,3.062c0.185,0.382,0.515,0.574,1.001,0.574
			c0.249,0,0.561-0.079,0.934-0.243c0.364-0.148,0.794-0.377,1.283-0.679V99.936z"/>
		<path fill="#0074A7" d="M97.839,98.053h3.65v3.554h-3.65V98.053z M97.839,105.308h3.65v3.553h-3.65V105.308z"/>
		<polygon fill="#0074A7" points="112.311,108.86 112.311,91.854 115.932,91.854 121.377,102.187 121.305,91.854 124.594,91.854 
			124.594,108.86 121.501,108.86 115.522,97.361 115.584,108.86 		"/>
		<path fill="#0074A7" d="M138.126,96.48v12.38h-3.222v-2.352c-0.626,0.911-1.246,1.574-1.863,1.999
			c-0.613,0.428-1.28,0.637-1.978,0.637c-0.803,0-1.45-0.248-1.932-0.742c-0.481-0.506-0.728-1.167-0.728-1.984V96.48h3.24v7.718
			c0,0.811,0.072,1.332,0.23,1.582c0.147,0.229,0.436,0.35,0.853,0.35c0.302,0,0.64-0.101,1.001-0.311
			c0.36-0.202,0.747-0.516,1.176-0.931V96.48H138.126z"/>
		<path fill="#0074A7" d="M149.996,108.305c-0.715,0.295-1.397,0.516-2.054,0.663c-0.646,0.142-1.285,0.217-1.902,0.217
			c-1.574,0-2.787-0.429-3.625-1.3c-0.832-0.868-1.253-2.13-1.253-3.779v-2.927c0-1.617,0.375-2.858,1.135-3.711
			c0.768-0.847,1.86-1.281,3.303-1.281c1.345,0,2.404,0.392,3.179,1.194c0.764,0.79,1.148,1.88,1.148,3.269v2.684h-5.751v1.058
			c0,0.721,0.216,1.269,0.647,1.665c0.433,0.396,1.032,0.592,1.81,0.592c0.403,0,0.856-0.069,1.354-0.208
			c0.493-0.131,1.031-0.347,1.614-0.62L149.996,108.305z M144.177,101.497h3.028v-1.076c0-0.685-0.131-1.206-0.384-1.562
			c-0.251-0.34-0.626-0.518-1.13-0.518c-0.466,0-0.837,0.18-1.106,0.535c-0.269,0.359-0.407,0.849-0.407,1.462V101.497z"/>
		<path fill="#0074A7" d="M152.164,107.438l1.513-2.25c0.442,0.491,0.882,0.861,1.308,1.114c0.423,0.242,0.847,0.357,1.241,0.357
			c0.382,0,0.705-0.086,0.951-0.284c0.255-0.19,0.386-0.427,0.386-0.715c0-0.422-0.534-0.938-1.577-1.555
			c-0.371-0.2-0.656-0.377-0.863-0.498c-1.106-0.684-1.85-1.282-2.207-1.805c-0.371-0.522-0.552-1.184-0.552-1.95
			c0-1.078,0.386-1.956,1.157-2.626c0.771-0.688,1.765-1.013,2.999-1.013c0.551,0,1.141,0.087,1.748,0.286
			c0.606,0.191,1.26,0.484,1.962,0.886l-1.47,2.172c-0.357-0.338-0.738-0.6-1.134-0.773c-0.394-0.161-0.798-0.242-1.211-0.242
			c-0.383,0-0.662,0.067-0.866,0.207c-0.193,0.146-0.292,0.356-0.292,0.644c0,0.352,0.535,0.849,1.611,1.486
			c0.194,0.116,0.337,0.191,0.433,0.25c0.088,0.058,0.235,0.151,0.433,0.255c0.839,0.503,1.465,0.919,1.87,1.267
			c0.341,0.3,0.599,0.679,0.781,1.098c0.17,0.422,0.258,0.893,0.258,1.409c0,1.179-0.387,2.129-1.187,2.872
			c-0.798,0.748-1.835,1.115-3.113,1.115c-0.729,0-1.435-0.145-2.123-0.424C153.521,108.432,152.849,108.013,152.164,107.438"/>
		<path fill="#0074A7" d="M166.806,103.765c0,1.034,0.136,1.723,0.404,2.074c0.266,0.337,0.771,0.516,1.5,0.516
			c0.053,0,0.122-0.007,0.217-0.014c0.098-0.005,0.18-0.018,0.229-0.018v2.74c-0.161,0.02-0.348,0.041-0.538,0.041
			c-0.189,0.016-0.458,0.016-0.82,0.016c-1.548,0-2.643-0.312-3.27-0.929c-0.633-0.607-0.952-1.691-0.952-3.237v-6.123h-1.817V96.48
			h1.817v-4.44h3.231v4.44h2.257v2.351h-2.257V103.765z"/>
		<path fill="#0074A7" d="M171.944,108.86V96.48h2.977v2.683c0.546-0.967,1.119-1.683,1.753-2.19
			c0.619-0.492,1.301-0.748,2.022-0.786v4.246c-0.806,0.046-1.502,0.165-2.072,0.337c-0.567,0.193-1.06,0.471-1.464,0.837v7.254
			H171.944z"/>
		<path fill="#0074A7" d="M190.235,103.71c0,1.829-0.393,3.194-1.199,4.093c-0.795,0.896-2.012,1.342-3.635,1.342
			c-1.63,0-2.845-0.445-3.635-1.342c-0.81-0.898-1.206-2.264-1.206-4.093v-2.086c0-1.823,0.396-3.182,1.206-4.079
			c0.79-0.892,2.004-1.331,3.635-1.331c1.623,0,2.839,0.439,3.635,1.331c0.806,0.897,1.199,2.256,1.199,4.079V103.71z
			 M183.841,102.675c0,1.716,0.117,2.799,0.346,3.231c0.217,0.435,0.617,0.65,1.215,0.65c0.582,0,0.983-0.209,1.209-0.635
			c0.216-0.421,0.326-1.499,0.326-3.247c0-1.745-0.109-2.829-0.326-3.249c-0.226-0.427-0.627-0.642-1.209-0.642
			c-0.598,0-0.998,0.215-1.215,0.649C183.958,99.859,183.841,100.949,183.841,102.675"/>
		<path fill="#0074A7" d="M200.005,91.854h4.284c1.49,0,2.62,0.064,3.356,0.187c0.751,0.121,1.383,0.332,1.876,0.615
			c0.772,0.429,1.361,1.035,1.771,1.798c0.401,0.774,0.603,1.685,0.603,2.722c0,1.054-0.201,1.963-0.603,2.748
			c-0.41,0.777-0.999,1.383-1.771,1.816c-0.51,0.278-1.143,0.477-1.921,0.613c-0.77,0.118-1.88,0.188-3.312,0.188h-0.506v6.319
			h-3.778V91.854z M203.783,94.747v4.908h1.043c1.242,0,2.097-0.179,2.566-0.535c0.461-0.358,0.691-0.995,0.691-1.907
			c0-0.941-0.23-1.58-0.691-1.939c-0.457-0.354-1.311-0.526-2.566-0.526H203.783z"/>
		<path fill="#0074A7" d="M213.968,108.86V96.48h2.977v2.683c0.54-0.967,1.12-1.683,1.74-2.19c0.624-0.492,1.299-0.748,2.034-0.786
			v4.246c-0.816,0.046-1.502,0.165-2.078,0.337c-0.576,0.193-1.064,0.471-1.465,0.837v7.254H213.968z"/>
		<path fill="#0074A7" d="M232.25,103.71c0,1.829-0.396,3.194-1.192,4.093c-0.805,0.896-2.014,1.342-3.642,1.342
			c-1.633,0-2.844-0.445-3.641-1.342c-0.807-0.898-1.193-2.264-1.193-4.093v-2.086c0-1.823,0.387-3.182,1.193-4.079
			c0.797-0.892,2.008-1.331,3.641-1.331c1.628,0,2.837,0.439,3.642,1.331c0.797,0.897,1.192,2.256,1.192,4.079V103.71z
			 M225.853,102.675c0,1.716,0.114,2.799,0.343,3.231c0.221,0.435,0.625,0.65,1.221,0.65c0.578,0,0.983-0.209,1.204-0.635
			c0.223-0.421,0.337-1.499,0.337-3.247c0-1.745-0.114-2.829-0.337-3.249c-0.221-0.427-0.626-0.642-1.204-0.642
			c-0.596,0-1,0.215-1.221,0.649C225.967,99.859,225.853,100.949,225.853,102.675"/>
		<path fill="#0074A7" d="M234.381,109.962c0.163,0.046,0.337,0.083,0.513,0.111c0.172,0.035,0.338,0.053,0.5,0.053
			c0.616,0,1.128-0.203,1.509-0.585c0.401-0.386,0.68-0.948,0.85-1.701l-3.585-11.359h3.271l1.865,6.853l1.489-6.853h3.278
			l-3.547,12.932c-0.346,1.243-0.884,2.137-1.612,2.706c-0.74,0.565-1.727,0.852-2.98,0.852c-0.266,0-0.538-0.024-0.799-0.063
			c-0.256-0.043-0.506-0.121-0.751-0.204V109.962z"/>
		<path fill="#0074A7" d="M255.239,108.305c-0.718,0.295-1.396,0.516-2.049,0.663c-0.655,0.142-1.286,0.217-1.907,0.217
			c-1.579,0-2.782-0.429-3.621-1.3c-0.843-0.868-1.257-2.13-1.257-3.779v-2.927c0-1.617,0.377-2.858,1.132-3.711
			c0.768-0.847,1.868-1.281,3.31-1.281c1.339,0,2.397,0.392,3.169,1.194c0.777,0.79,1.154,1.88,1.154,3.269v2.684h-5.748v1.058
			c0,0.721,0.212,1.269,0.645,1.665c0.425,0.396,1.024,0.592,1.803,0.592c0.415,0,0.863-0.069,1.365-0.208
			c0.481-0.131,1.022-0.347,1.604-0.62L255.239,108.305z M249.422,101.497h3.026v-1.076c0-0.685-0.136-1.206-0.382-1.562
			c-0.257-0.34-0.631-0.518-1.135-0.518c-0.465,0-0.836,0.18-1.108,0.535c-0.267,0.359-0.401,0.849-0.401,1.462V101.497z"/>
		<path fill="#0074A7" d="M264.294,100.142c0-0.416-0.118-0.749-0.34-0.979c-0.226-0.232-0.529-0.361-0.926-0.361
			c-0.525,0-0.896,0.186-1.123,0.554c-0.221,0.351-0.344,0.961-0.344,1.803v3.123c0,0.817,0.123,1.397,0.353,1.741
			c0.231,0.35,0.612,0.505,1.138,0.505c0.424,0,0.737-0.127,0.977-0.384c0.236-0.268,0.351-0.631,0.351-1.097
			c0-0.035-0.002-0.081-0.011-0.151c-0.004-0.06-0.004-0.107-0.004-0.146h2.833v0.386c0,1.347-0.354,2.354-1.08,3.023
			c-0.713,0.648-1.807,0.985-3.245,0.985c-1.572,0-2.728-0.389-3.468-1.189c-0.751-0.796-1.119-2.027-1.119-3.674v-3.327
			c0-1.528,0.385-2.708,1.17-3.529c0.792-0.804,1.924-1.211,3.394-1.211c1.304,0,2.309,0.324,3.03,0.95
			c0.721,0.656,1.079,1.552,1.079,2.718v0.26H264.294z"/>
		<path fill="#0074A7" d="M273.767,103.765c0,1.034,0.139,1.723,0.413,2.074c0.267,0.337,0.766,0.516,1.51,0.516
			c0.037,0,0.116-0.007,0.21-0.014c0.102-0.005,0.17-0.018,0.226-0.018v2.74c-0.162,0.02-0.346,0.041-0.543,0.041
			c-0.19,0.016-0.462,0.016-0.804,0.016c-1.564,0-2.653-0.312-3.279-0.929c-0.637-0.607-0.945-1.691-0.945-3.237v-6.123h-1.822
			V96.48h1.822v-4.44h3.213v4.44h2.27v2.351h-2.27V103.765z"/>
		<path fill="#0074A7" d="M288.158,103.71c0,1.829-0.401,3.194-1.198,4.093c-0.8,0.896-2.015,1.342-3.646,1.342
			c-1.628,0-2.837-0.445-3.638-1.342c-0.801-0.898-1.195-2.264-1.195-4.093v-2.086c0-1.823,0.395-3.182,1.195-4.079
			c0.801-0.892,2.01-1.331,3.638-1.331c1.632,0,2.847,0.439,3.646,1.331c0.797,0.897,1.198,2.256,1.198,4.079V103.71z
			 M281.766,102.675c0,1.716,0.114,2.799,0.333,3.231c0.224,0.435,0.624,0.65,1.215,0.65c0.586,0,0.985-0.209,1.216-0.635
			c0.221-0.421,0.336-1.499,0.336-3.247c0-1.745-0.115-2.829-0.336-3.249c-0.23-0.427-0.63-0.642-1.216-0.642
			c-0.591,0-0.991,0.215-1.215,0.649C281.88,99.859,281.766,100.949,281.766,102.675"/>
		<polygon fill="#0074A7" points="297.918,108.86 297.918,91.854 309.389,91.854 309.389,95.141 301.694,95.141 301.694,98.183 
			306.956,98.183 306.956,101.465 301.694,101.465 301.694,105.576 309.888,105.576 309.888,108.86 		"/>
		<path fill="#0074A7" d="M322.625,108.86h-3.229v-2.201c-0.574,0.89-1.146,1.528-1.722,1.913c-0.579,0.381-1.243,0.572-1.994,0.572
			c-1.167,0-1.961-0.389-2.391-1.189c-0.446-0.796-0.659-2.565-0.659-5.28c0-2.729,0.213-4.481,0.637-5.276
			c0.425-0.803,1.216-1.185,2.363-1.185c0.79,0,1.465,0.18,2.044,0.554c0.575,0.37,1.147,0.994,1.722,1.888v-7.234h3.229V108.86z
			 M319.396,99.936c-0.505-0.312-0.943-0.543-1.309-0.692c-0.36-0.138-0.659-0.221-0.905-0.221c-0.48,0-0.821,0.197-0.996,0.574
			c-0.184,0.385-0.271,1.412-0.271,3.078c0,1.659,0.087,2.692,0.271,3.062c0.175,0.382,0.516,0.574,0.996,0.574
			c0.249,0,0.556-0.079,0.935-0.243c0.372-0.148,0.798-0.377,1.279-0.679V99.936z"/>
		<path fill="#0074A7" d="M325.795,91.421h3.239v2.791h-3.239V91.421z M325.795,96.48h3.239v12.38h-3.239V96.48z"/>
		<path fill="#0074A7" d="M336.142,103.765c0,1.034,0.138,1.723,0.403,2.074c0.269,0.337,0.774,0.516,1.509,0.516
			c0.039,0,0.115-0.007,0.214-0.014c0.097-0.005,0.173-0.018,0.227-0.018v2.74c-0.17,0.02-0.35,0.041-0.543,0.041
			c-0.189,0.016-0.465,0.016-0.803,0.016c-1.561,0-2.666-0.312-3.293-0.929c-0.631-0.607-0.941-1.691-0.941-3.237v-6.123h-1.807
			V96.48h1.807v-4.44h3.228v4.44h2.255v2.351h-2.255V103.765z"/>
		<path fill="#0074A7" d="M350.524,103.71c0,1.829-0.403,3.194-1.207,4.093c-0.792,0.896-2.013,1.342-3.634,1.342
			c-1.625,0-2.84-0.445-3.644-1.342c-0.796-0.898-1.188-2.264-1.188-4.093v-2.086c0-1.823,0.392-3.182,1.188-4.079
			c0.804-0.892,2.019-1.331,3.644-1.331c1.621,0,2.842,0.439,3.634,1.331c0.804,0.897,1.207,2.256,1.207,4.079V103.71z
			 M344.128,102.675c0,1.716,0.103,2.799,0.332,3.231c0.225,0.435,0.634,0.65,1.224,0.65c0.585,0,0.98-0.209,1.208-0.635
			c0.22-0.421,0.336-1.499,0.336-3.247c0-1.745-0.116-2.829-0.336-3.249c-0.228-0.427-0.623-0.642-1.208-0.642
			c-0.59,0-0.999,0.215-1.224,0.649C344.23,99.859,344.128,100.949,344.128,102.675"/>
		<path fill="#0074A7" d="M353.248,108.86V96.48h2.979v2.683c0.533-0.967,1.114-1.683,1.743-2.19c0.615-0.492,1.3-0.748,2.019-0.786
			v4.246c-0.806,0.046-1.49,0.165-2.062,0.337c-0.575,0.193-1.064,0.471-1.469,0.837v7.254H353.248z"/>
		<path fill="#0074A7" d="M362.324,91.421h3.24v2.791h-3.24V91.421z M362.324,96.48h3.24v12.38h-3.24V96.48z"/>
		<path fill="#0074A7" d="M374.748,107.479c-0.597,0.586-1.16,1.005-1.714,1.277c-0.556,0.262-1.139,0.389-1.763,0.389
			c-0.954,0-1.71-0.312-2.276-0.935c-0.571-0.626-0.865-1.446-0.865-2.489c0-1.387,0.52-2.489,1.541-3.332
			c1.021-0.829,2.562-1.387,4.612-1.665v-0.979c0-0.381-0.148-0.676-0.449-0.896c-0.302-0.243-0.692-0.365-1.188-0.365
			c-0.444,0-0.893,0.103-1.355,0.302c-0.457,0.215-0.964,0.522-1.504,0.96l-1.513-1.937c0.646-0.538,1.352-0.938,2.108-1.212
			c0.751-0.255,1.562-0.382,2.458-0.382c1.53,0,2.701,0.35,3.482,1.075c0.791,0.714,1.18,1.767,1.18,3.178v5.328
			c0,0.197,0.063,0.361,0.157,0.496c0.104,0.132,0.251,0.218,0.437,0.266l-0.009,2.411c-0.06,0.014-0.124,0.014-0.204,0.025
			C377.802,109,377.7,109,377.554,109c-0.662,0-1.222-0.122-1.684-0.378C375.404,108.383,375.04,108.001,374.748,107.479
			 M374.283,102.604c-0.935,0.122-1.691,0.411-2.234,0.87c-0.551,0.464-0.823,1.016-0.823,1.661c0,0.44,0.125,0.812,0.377,1.097
			c0.248,0.268,0.559,0.415,0.952,0.415c0.544,0,0.964-0.225,1.272-0.677c0.308-0.454,0.456-1.097,0.456-1.929V102.604z"/>
		<rect x="380.438" y="91.421" fill="#0074A7" width="3.246" height="17.439"/>
		<rect x="387.275" y="105.308" fill="#0074A7" width="3.655" height="3.553"/>
	</g>
</g>
</svg>
